<?xml version="1.0" encoding="UTF-8"?>
<svg version="1.1" xmlns="http://www.w3.org/2000/svg" width="512" height="512">
<path d="M0 0 C1.45108658 0.00273422 1.45108658 0.00273422 2.93148804 0.00552368 C17.26440977 0.05095174 31.21023917 0.55983928 45.3125 3.3125 C46.65803955 3.55395752 46.65803955 3.55395752 48.03076172 3.80029297 C107.84088904 14.62287989 165.35495829 48.68064457 202.3125 97.3125 C202.72918945 97.85277832 203.14587891 98.39305664 203.57519531 98.94970703 C211.2584873 108.9447116 218.00092968 119.40459036 224.3125 130.3125 C224.70679199 130.98974121 225.10108398 131.66698242 225.50732422 132.36474609 C238.68961173 155.2833756 247.29510918 180.85822563 252.625 206.6875 C252.77243652 207.39817627 252.91987305 208.10885254 253.07177734 208.84106445 C256.05713787 224.48358366 256.6873098 240.11919606 256.625 256 C256.62226578 257.45108658 256.62226578 257.45108658 256.61947632 258.93148804 C256.57404826 273.26440977 256.06516072 287.21023917 253.3125 301.3125 C253.15152832 302.20952637 252.99055664 303.10655273 252.82470703 304.03076172 C242.00212011 363.84088904 207.94435543 421.35495829 159.3125 458.3125 C158.77222168 458.72918945 158.23194336 459.14587891 157.67529297 459.57519531 C147.6802884 467.2584873 137.22040964 474.00092968 126.3125 480.3125 C125.63525879 480.70679199 124.95801758 481.10108398 124.26025391 481.50732422 C101.3416244 494.68961173 75.76677437 503.29510918 49.9375 508.625 C49.22682373 508.77243652 48.51614746 508.91987305 47.78393555 509.07177734 C32.14141634 512.05713787 16.50580394 512.6873098 0.625 512.625 C-0.34239105 512.62317719 -1.3097821 512.62135437 -2.30648804 512.61947632 C-16.63940977 512.57404826 -30.58523917 512.06516072 -44.6875 509.3125 C-45.58452637 509.15152832 -46.48155273 508.99055664 -47.40576172 508.82470703 C-107.21588904 498.00212011 -164.72995829 463.94435543 -201.6875 415.3125 C-202.10418945 414.77222168 -202.52087891 414.23194336 -202.95019531 413.67529297 C-210.6334873 403.6802884 -217.37592968 393.22040964 -223.6875 382.3125 C-224.08179199 381.63525879 -224.47608398 380.95801758 -224.88232422 380.26025391 C-238.06461173 357.3416244 -246.67010918 331.76677437 -252 305.9375 C-252.14743652 305.22682373 -252.29487305 304.51614746 -252.44677734 303.78393555 C-255.43213787 288.14141634 -256.0623098 272.50580394 -256 256.625 C-255.99817719 255.65760895 -255.99635437 254.6902179 -255.99447632 253.69351196 C-255.94904826 239.36059023 -255.44016072 225.41476083 -252.6875 211.3125 C-252.44604248 209.96696045 -252.44604248 209.96696045 -252.19970703 208.59423828 C-241.37712011 148.78411096 -207.31935543 91.27004171 -158.6875 54.3125 C-158.14722168 53.89581055 -157.60694336 53.47912109 -157.05029297 53.04980469 C-147.0552884 45.3665127 -136.59540964 38.62407032 -125.6875 32.3125 C-125.01025879 31.91820801 -124.33301758 31.52391602 -123.63525391 31.11767578 C-100.7166244 17.93538827 -75.14177437 9.32989082 -49.3125 4 C-48.60182373 3.85256348 -47.89114746 3.70512695 -47.15893555 3.55322266 C-31.51641634 0.56786213 -15.88080394 -0.0623098 0 0 Z " fill="#FED800" transform="translate(255.6875,-0.3125)"/>
<path d="M0 0 C1.33567898 -0.02036505 1.33567898 -0.02036505 2.69834137 -0.04114151 C39.42485138 -0.53230333 71.41958809 6.21702418 105.95903015 18.23077393 C109.50756598 19.4205453 113.09213551 20.4456865 116.70365906 21.42591858 C120.371927 22.75066748 122.95398542 25.16662097 125.75 27.8125 C126.96002203 28.90205921 128.17096807 29.99059309 129.3828125 31.078125 C129.96708008 31.61115234 130.55134766 32.14417969 131.15332031 32.69335938 C133.4143522 34.7294858 135.75918568 36.64971395 138.125 38.5625 C142.82371189 42.38236592 147.51093941 46.21556012 152.1875 50.0625 C152.91622314 50.6618335 153.64494629 51.26116699 154.39575195 51.87866211 C159.43422276 56.03086529 164.42319038 60.23730611 169.39282227 64.47143555 C173.76317088 68.17997053 178.24324127 71.72808706 182.8125 75.1875 C181.23970322 80.28087181 179.16456235 85.03361504 176.953125 89.87109375 C176.5716481 90.71198044 176.1901712 91.55286713 175.7971344 92.41923523 C174.55498843 95.15574073 173.30875004 97.89036146 172.0625 100.625 C171.20631122 102.50946063 170.35043777 104.39406456 169.49487305 106.27880859 C167.76712734 110.08435775 166.03807506 113.88930898 164.30810547 117.69384766 C161.03912473 124.88604573 157.78762135 132.08610919 154.53869629 139.28738403 C153.09546658 142.4861576 151.65116047 145.68444494 150.20703125 148.8828125 C149.40883254 150.6510319 148.61064606 152.41925683 147.8125 154.1875 C144.49522264 153.56893791 142.39726243 152.38483359 139.6953125 150.38671875 C138.53708984 149.53883789 138.53708984 149.53883789 137.35546875 148.67382812 C136.55753906 148.08021484 135.75960938 147.48660156 134.9375 146.875 C133.35749269 145.71125889 131.77677799 144.5484775 130.1953125 143.38671875 C129.14947998 142.61074341 129.14947998 142.61074341 128.08251953 141.8190918 C125.37434836 139.87257556 122.58749895 138.0374993 119.8125 136.1875 C119.4825 196.5775 119.1525 256.9675 118.8125 319.1875 C42.9125 319.1875 -32.9875 319.1875 -111.1875 319.1875 C-111.5175 258.7975 -111.8475 198.4075 -112.1875 136.1875 C-124.77461822 145.06778437 -124.77461822 145.06778437 -137.1875 154.1875 C-138.1775 154.1875 -139.1675 154.1875 -140.1875 154.1875 C-148.94264477 135.25728039 -157.63841553 116.30238213 -166.125 97.25 C-166.46901855 96.48014771 -166.81303711 95.71029541 -167.16748047 94.91711426 C-168.14471639 92.72866463 -169.11796532 90.53848949 -170.08984375 88.34765625 C-170.37556747 87.70854813 -170.6612912 87.06944 -170.95567322 86.41096497 C-172.58278704 82.72627267 -173.97418078 79.02802452 -175.1875 75.1875 C-166.37792387 67.6944583 -157.49023856 60.31077871 -148.515625 53.015625 C-143.50857577 48.93473517 -138.54546275 44.80944383 -133.625 40.625 C-128.98322049 36.67781082 -124.28672434 32.8154093 -119.50390625 29.0390625 C-117.06346233 27.13883961 -117.06346233 27.13883961 -114.4765625 24.640625 C-110.72993464 21.52502679 -106.65409519 20.5063458 -102 19.3125 C-100.64044189 18.94306274 -100.64044189 18.94306274 -99.25341797 18.56616211 C-96.23638536 17.75306292 -93.21346368 16.96667977 -90.1875 16.1875 C-89.11580566 15.91147949 -88.04411133 15.63545898 -86.93994141 15.35107422 C-77.79420247 13.00054011 -77.79420247 13.00054011 -73.39160156 11.87695312 C-62.93469645 9.18282904 -52.61991517 6.08462121 -42.32446289 2.83251953 C-29.16481708 -1.13957966 -13.67339301 0.20159887 0 0 Z " fill="#2663EF" transform="translate(252.1875,97.8125)"/>
<path d="M0 0 C4.85104917 4.1109401 9.57802759 8.31811801 14.22045898 12.66259766 C14.90423111 13.30124756 15.58800323 13.93989746 16.29249573 14.59790039 C22.5704278 20.48034857 28.77514139 26.43791604 34.95551968 32.42264748 C39.09324703 36.42579817 43.25295177 40.39825439 47.47729492 44.31005859 C78.59259142 73.18057646 78.59259142 73.18057646 79.41029358 87.92160034 C79.19228483 92.39973341 78.63919291 96.63605313 77.65159607 101.00834656 C76.77731131 105.0224239 76.43343302 109.02979381 76.07649231 113.11703491 C75.61953601 117.78273809 74.81702647 122.38586937 74 127 C73.83902832 127.92022949 73.67805664 128.84045898 73.51220703 129.78857422 C62.66498321 189.56813526 28.61030314 247.05883684 -20 284 C-20.54027832 284.41668945 -21.08055664 284.83337891 -21.63720703 285.26269531 C-31.6322116 292.9459873 -42.09209036 299.68842968 -53 306 C-53.67724121 306.39429199 -54.35448242 306.78858398 -55.05224609 307.19482422 C-77.9708756 320.37711173 -103.54572563 328.98260918 -129.375 334.3125 C-130.08567627 334.45993652 -130.79635254 334.60737305 -131.52856445 334.75927734 C-146.32464792 337.58309638 -161.31099856 338.46276001 -176.3449707 338.59033203 C-178.25998108 338.61368782 -180.17484628 338.65507315 -182.08911133 338.71337891 C-184.90792852 338.79864604 -187.72302446 338.83099931 -190.54296875 338.8515625 C-191.39094528 338.88657867 -192.23892181 338.92159485 -193.1125946 338.95767212 C-196.54900875 338.93260943 -199.05792315 338.86943261 -201.66095543 336.46712208 C-202.18053637 335.8148146 -202.7001173 335.16250711 -203.23544312 334.49043274 C-207.1374201 329.79224166 -211.35850046 325.51512195 -215.68920898 321.21313477 C-216.52903824 320.37476578 -217.36886749 319.53639679 -218.23414612 318.67262268 C-220.04396651 316.86658641 -221.85494049 315.06170554 -223.66695976 313.25787544 C-226.53052954 310.40712462 -229.39098675 307.55328551 -232.25050354 304.69847107 C-238.30985828 298.65015936 -244.37347536 292.6061291 -250.4375 286.5625 C-257.00973559 280.01230533 -263.58121154 273.46135831 -270.1478582 266.90555996 C-272.52607477 264.53151471 -274.90537099 262.15857164 -277.28710747 259.78805733 C-279.93244732 257.15459294 -282.57481462 254.51818018 -285.21655273 251.88110352 C-286.00971893 251.09310364 -286.80288513 250.30510376 -287.62008667 249.4932251 C-288.3335878 248.77979446 -289.04708893 248.06636383 -289.7822113 247.33131409 C-290.71986407 246.39699224 -290.71986407 246.39699224 -291.67645931 245.4437952 C-293 244 -293 244 -293 243 C-217.43 243 -141.86 243 -64 243 C-64 182.28 -64 121.56 -64 59 C-56.13598326 63.49372385 -56.13598326 63.49372385 -52.51953125 66.1640625 C-51.74802734 66.72867188 -50.97652344 67.29328125 -50.18164062 67.875 C-49.39982422 68.4525 -48.61800781 69.03 -47.8125 69.625 C-46.23769485 70.7865947 -44.66094011 71.94555198 -43.08203125 73.1015625 C-42.39343018 73.61025879 -41.7048291 74.11895508 -40.99536133 74.64306641 C-39.05862621 75.9601316 -37.11783835 77.00612427 -35 78 C-34.43345703 76.15341797 -34.43345703 76.15341797 -33.85546875 74.26953125 C-31.82156035 68.18202089 -29.06589855 62.47647251 -26.3125 56.6875 C-25.15217403 54.22260309 -23.99378846 51.75694003 -22.83984375 49.2890625 C-22.53560486 48.63847366 -22.23136597 47.98788483 -21.91790771 47.31758118 C-17.21877776 37.22385306 -12.76801707 27.01609623 -8.29418945 16.82104492 C-7.64145901 15.34032312 -6.98870928 13.85960983 -6.3359375 12.37890625 C-6.04268082 11.70608612 -5.74942413 11.03326599 -5.44728088 10.34005737 C-3.85311111 6.72955629 -2.11238592 3.33469468 0 0 Z " fill="#FEBA34" transform="translate(435,174)"/>
<path d="M0 0 C7.42262185 1.37215732 14.67767692 3.16283749 21.95703125 5.15234375 C23.0630217 5.45314346 24.16901215 5.75394318 25.30851746 6.06385803 C27.62927476 6.69658127 29.94952531 7.33116592 32.26928711 7.9675293 C35.81737179 8.93883368 39.36852549 9.8983071 42.91992188 10.85742188 C45.18248898 11.47584107 47.44486566 12.09495744 49.70703125 12.71484375 C50.76541702 12.9993187 51.8238028 13.28379364 52.91426086 13.57688904 C53.90266464 13.85049759 54.89106842 14.12410614 55.90942383 14.40600586 C56.77416824 14.64202011 57.63891266 14.87803436 58.52986145 15.12120056 C62.80032812 16.64050146 66.28583461 19.0930486 69.75 21.96875 C70.43441162 22.5344873 71.11882324 23.10022461 71.82397461 23.68310547 C72.54206299 24.28268066 73.26015137 24.88225586 74 25.5 C74.74967041 26.12148926 75.49934082 26.74297852 76.27172852 27.38330078 C81.389251 31.63347426 86.4711064 35.92496784 91.53710938 40.23632812 C95.42935039 43.54106106 99.3998825 46.73291508 103.40234375 49.90234375 C106.50076479 52.40437698 109.532063 54.97891145 112.5625 57.5625 C117.59933542 61.85538351 122.72228033 66.00420707 128 70 C126.42720322 75.09337181 124.35206235 79.84611504 122.140625 84.68359375 C121.7591481 85.52448044 121.3776712 86.36536713 120.9846344 87.23173523 C119.74248843 89.96824073 118.49625004 92.70286146 117.25 95.4375 C116.39381122 97.32196063 115.53793777 99.20656456 114.68237305 101.09130859 C112.95462734 104.89685775 111.22557506 108.70180898 109.49560547 112.50634766 C106.22662473 119.69854573 102.97512135 126.89860919 99.72619629 134.09988403 C98.28296658 137.2986576 96.83866047 140.49694494 95.39453125 143.6953125 C94.59633254 145.4635319 93.79814606 147.23175683 93 149 C89.68272264 148.38143791 87.58476243 147.19733359 84.8828125 145.19921875 C83.72458984 144.35133789 83.72458984 144.35133789 82.54296875 143.48632812 C81.74503906 142.89271484 80.94710937 142.29910156 80.125 141.6875 C78.54499269 140.52375889 76.96427799 139.3609775 75.3828125 138.19921875 C74.68559082 137.68190186 73.98836914 137.16458496 73.27001953 136.6315918 C70.56184836 134.68507556 67.77499895 132.8499993 65 131 C64.67 191.39 64.34 251.78 64 314 C26.05 314 -11.9 314 -51 314 C-51 234.47 -51 154.94 -51 73 C-45.06 72.01 -45.06 72.01 -39 71 C-31.19427189 68.79922977 -24.83294427 65.68580865 -18.70703125 60.35546875 C-17 59 -17 59 -15 59 C-14.72929687 58.42636719 -14.45859375 57.85273438 -14.1796875 57.26171875 C-12.98075282 54.96309895 -11.61528199 52.93209796 -10.125 50.8125 C-2.12172065 38.88566175 -0.7226885 27.59856299 -0.375 13.4375 C-0.33632813 12.14263672 -0.29765625 10.84777344 -0.2578125 9.51367188 C-0.16420106 6.34258424 -0.07846597 3.17149245 0 0 Z " fill="#0051BD" transform="translate(307,103)"/>
<path d="M0 0 C0 98.01 0 196.02 0 297 C-0.33 297 -0.66 297 -1 297 C-1.33 236.61 -1.66 176.22 -2 114 C-14.58711822 122.88028437 -14.58711822 122.88028437 -27 132 C-27.99 132 -28.98 132 -30 132 C-38.75514477 113.06978039 -47.45091553 94.11488213 -55.9375 75.0625 C-56.28151855 74.29264771 -56.62553711 73.52279541 -56.97998047 72.72961426 C-57.95721639 70.54116463 -58.93046532 68.35098949 -59.90234375 66.16015625 C-60.18806747 65.52104813 -60.4737912 64.88194 -60.76817322 64.22346497 C-62.39528704 60.53877267 -63.78668078 56.84052452 -65 53 C-56.19042387 45.5069583 -47.30273856 38.12327871 -38.328125 30.828125 C-33.32107577 26.74723517 -28.35796275 22.62194383 -23.4375 18.4375 C-18.74560454 14.44769416 -13.99381323 10.54945966 -9.1640625 6.7265625 C-7.22708116 5.18117306 -5.32691258 3.60286659 -3.4375 2 C-1 0 -1 0 0 0 Z " fill="#4D79F8" transform="translate(142,120)"/>
<path d="M0 0 C4.91383066 3.685373 9.67627515 7.32039859 14.3125 11.3125 C20.14382023 16.28921558 26.05101177 21.16427272 32 26 C37.92606669 30.81709514 43.81051706 35.6741127 49.625 40.625 C54.64178423 44.89531404 59.74620558 49.02232102 65 53 C63.42720322 58.09337181 61.35206235 62.84611504 59.140625 67.68359375 C58.7591481 68.52448044 58.3776712 69.36536713 57.9846344 70.23173523 C56.74248843 72.96824073 55.49625004 75.70286146 54.25 78.4375 C53.39381122 80.32196063 52.53793777 82.20656456 51.68237305 84.09130859 C49.95462734 87.89685775 48.22557506 91.70180898 46.49560547 95.50634766 C43.22662473 102.69854573 39.97512135 109.89860919 36.72619629 117.09988403 C35.28296658 120.2986576 33.83866047 123.49694494 32.39453125 126.6953125 C31.59633254 128.4635319 30.79814606 130.23175683 30 132 C26.68272264 131.38143791 24.58476243 130.19733359 21.8828125 128.19921875 C21.11066406 127.63396484 20.33851563 127.06871094 19.54296875 126.48632812 C18.74503906 125.89271484 17.94710938 125.29910156 17.125 124.6875 C15.54499269 123.52375889 13.96427799 122.3609775 12.3828125 121.19921875 C11.68559082 120.68190186 10.98836914 120.16458496 10.27001953 119.6315918 C7.56184836 117.68507556 4.77499895 115.8499993 2 114 C1.67 174.39 1.34 234.78 1 297 C0.67 297 0.34 297 0 297 C0 198.99 0 100.98 0 0 Z " fill="#2763EC" transform="translate(370,120)"/>
<path d="M0 0 C25.08 0 50.16 0 76 0 C76 44.85 76 44.85 65 56 C62.16161969 58.34712218 59.22247075 60.22317274 56 62 C55.26136719 62.41507813 54.52273438 62.83015625 53.76171875 63.2578125 C45.34230488 67.30479127 35.62461184 67.36672811 26.65625 65.1875 C16.45523503 61.4015563 7.64602246 53.94073484 3 44 C0 36 0 36 0 0 Z " fill="#0252BC" transform="translate(218,99)"/>
<path d="M0 0 C18.48 0 36.96 0 56 0 C56.226875 6.414375 56.45375 12.82875 56.6875 19.4375 C56.78764404 21.44384521 56.88778809 23.45019043 56.9909668 25.51733398 C57.36126246 38.09811365 57.36126246 38.09811365 53.80786133 43.06274414 C50.99086112 45.38252581 48.16657925 47.19427762 45 49 C43.45842551 50.14565697 41.93192031 51.31204764 40.42578125 52.50390625 C39.05658402 53.52598305 37.68553452 54.54558395 36.3125 55.5625 C35.59900391 56.09423828 34.88550781 56.62597656 34.15039062 57.17382812 C32.43530037 58.45151281 30.71791374 59.72611415 29 61 C25.96396775 59.58229898 23.35748373 57.90726029 20.6640625 55.91796875 C19.84679687 55.31533203 19.02953125 54.71269531 18.1875 54.09179688 C17.341875 53.46337891 16.49625 52.83496094 15.625 52.1875 C14.78710938 51.57068359 13.94921875 50.95386719 13.0859375 50.31835938 C10.71047192 48.56103775 8.3400634 46.80427257 6 45 C4.92717773 44.29375488 3.85435547 43.58750977 2.74902344 42.85986328 C-0.56563313 39.4115607 -0.68306838 37.90485762 -0.67895508 33.3013916 C-0.64825928 32.46329956 -0.61756348 31.62520752 -0.5859375 30.76171875 C-0.57989502 29.98042603 -0.57385254 29.1991333 -0.56762695 28.39416504 C-0.53636751 25.49140147 -0.4525975 22.58939457 -0.375 19.6875 C-0.25125 13.190625 -0.1275 6.69375 0 0 Z " fill="#84C6FE" transform="translate(294,198)"/>
<path d="M0 0 C0.00410889 1.02770508 0.00821777 2.05541016 0.01245117 3.11425781 C0.0344786 6.98388566 0.08900502 10.8525303 0.15258789 14.72167969 C0.17556463 16.3856452 0.19011512 18.04975195 0.19555664 19.71386719 C0.25118679 33.93806798 2.13960746 45.10589703 12.38671875 55.80078125 C21.77321147 63.700027 32.05062802 65.87125955 43.94042969 65.23095703 C49.08945518 64.65355327 53.51953843 62.47694736 58 60 C58.68707031 59.62746094 59.37414062 59.25492188 60.08203125 58.87109375 C65.10861944 55.72810723 68.26949471 51.19015616 71 46 C71.51409424 45.071875 71.51409424 45.071875 72.03857422 44.125 C76.14642205 35.60392917 75.67198895 26.6256587 75.75 17.375 C75.77820664 15.68616794 75.8081405 13.99736379 75.83984375 12.30859375 C75.91314959 8.20577991 75.96306206 4.10329581 76 0 C80.29 0.99 84.58 1.98 89 3 C89.94592466 42.12449486 89.94592466 42.12449486 78 58 C77.38769531 58.83273438 76.77539062 59.66546875 76.14453125 60.5234375 C67.73385201 70.23631663 54.59630442 76.35303276 41.9140625 77.4375 C27.41084821 78.13354402 14.74814831 73.12108461 3.8125 63.75 C-5.77519997 54.72628238 -12.64275632 42.16339056 -13.11352539 28.77026367 C-13.10828857 27.58150635 -13.10305176 26.39274902 -13.09765625 25.16796875 C-13.09443359 23.87568359 -13.09121094 22.58339844 -13.08789062 21.25195312 C-13.07953665 19.89713474 -13.07107172 18.54231703 -13.0625 17.1875 C-13.05748 15.81315265 -13.05291797 14.43880355 -13.04882812 13.06445312 C-13.03705668 9.70959076 -13.02061283 6.35481779 -13 3 C-11.2092015 2.49689942 -9.41733089 1.99761372 -7.625 1.5 C-6.62726563 1.2215625 -5.62953125 0.943125 -4.6015625 0.65625 C-2 0 -2 0 0 0 Z " fill="#82C3FC" transform="translate(218,99)"/>
<path d="M0 0 C12.54 0 25.08 0 38 0 C38.1546875 8.29125 38.1546875 8.29125 38.3125 16.75 C38.35802002 18.46799805 38.40354004 20.18599609 38.45043945 21.95605469 C38.63280196 33.84331986 36.42631522 43.78065322 28.71875 53.2578125 C23.18677096 58.86522761 15.63948803 63.08731522 8 65 C5.36 65 2.72 65 0 65 C0 43.55 0 22.1 0 0 Z " fill="#26478F" transform="translate(256,100)"/>
<path d="M0 0 C9.24 0 18.48 0 28 0 C28 19.8 28 39.6 28 60 C24.04901666 58.41960666 21.92915846 57.39743853 18.75 54.8828125 C17.58984375 53.97208984 17.58984375 53.97208984 16.40625 53.04296875 C15.6121875 52.41003906 14.818125 51.77710938 14 51.125 C13.2059375 50.49980469 12.411875 49.87460938 11.59375 49.23046875 C9.39048273 47.49355972 7.19326861 45.74951194 5 44 C3.64612183 43.18813232 3.64612183 43.18813232 2.26489258 42.35986328 C-0.66277911 39.30942946 -0.56841856 37.55201525 -0.56648254 33.44818115 C-0.54067612 32.59387512 -0.51486969 31.73956909 -0.48828125 30.859375 C-0.47766914 29.53610199 -0.47766914 29.53610199 -0.46684265 28.18609619 C-0.43889178 25.37319519 -0.37615381 22.56229748 -0.3125 19.75 C-0.28741794 17.84117462 -0.26460461 15.93231798 -0.24414062 14.0234375 C-0.19331597 9.34756905 -0.09547231 4.67602162 0 0 Z " fill="#9FD2FE" transform="translate(294,198)"/>
<path d="M0 0 C0.00410889 1.02770508 0.00821777 2.05541016 0.01245117 3.11425781 C0.0344786 6.98388566 0.08900502 10.8525303 0.15258789 14.72167969 C0.17556463 16.3856452 0.19011512 18.04975195 0.19555664 19.71386719 C0.2511196 33.92088858 2.11347454 45.16188731 12.4140625 55.8046875 C19.04047537 61.43013166 26.59896769 64.40941626 35.13671875 65.67578125 C37 66 37 66 38 67 C38.07179964 68.51928038 38.08392007 70.04167482 38.0625 71.5625 C38.05347656 72.38878906 38.04445313 73.21507812 38.03515625 74.06640625 C38.02355469 74.70449219 38.01195312 75.34257812 38 76 C24.28035163 77.0946528 13.51490461 72.11327422 3.1015625 63.4140625 C-5.67827347 55.24766485 -11.05238457 43.75828743 -13 32 C-13.08000751 29.72382931 -13.10768953 27.44552304 -13.09765625 25.16796875 C-13.09443359 23.87568359 -13.09121094 22.58339844 -13.08789062 21.25195312 C-13.07953665 19.89713474 -13.07107172 18.54231703 -13.0625 17.1875 C-13.05748 15.81315265 -13.05291797 14.43880355 -13.04882812 13.06445312 C-13.03705668 9.70959076 -13.02061283 6.35481779 -13 3 C-11.2092015 2.49689942 -9.41733089 1.99761372 -7.625 1.5 C-6.62726563 1.2215625 -5.62953125 0.943125 -4.6015625 0.65625 C-2 0 -2 0 0 0 Z " fill="#9DD0FD" transform="translate(218,99)"/>
<path d="M0 0 C0 15.84 0 31.68 0 48 C-4.37716368 44.24814542 -8.46312247 40.65839751 -12.49609375 36.6015625 C-12.97450211 36.1217392 -13.45291046 35.64191589 -13.94581604 35.14755249 C-15.44544879 33.64240542 -16.94153128 32.13378786 -18.4375 30.625 C-19.46525983 29.59221405 -20.49325285 28.55966009 -21.52148438 27.52734375 C-24.01701598 25.02089713 -26.50938082 22.5113292 -29 20 C-25.91051763 17.48713941 -22.79218433 15.10547142 -19.49609375 12.87109375 C-18.67302734 12.31099609 -17.84996094 11.75089844 -17.00195312 11.17382812 C-15.73254883 10.3143457 -15.73254883 10.3143457 -14.4375 9.4375 C-12.74813631 8.29119181 -11.05931481 7.14408407 -9.37109375 5.99609375 C-8.62786865 5.49263428 -7.88464355 4.9891748 -7.11889648 4.47045898 C-5.65139307 3.45204983 -4.20925019 2.39648018 -2.78930664 1.31274414 C-1 0 -1 0 0 0 Z " fill="#FDB935" transform="translate(141,233)"/>
</svg>
